<?xml version="1.0" encoding="UTF-8"?>
<svg xmlns="http://www.w3.org/2000/svg" xmlns:xlink="http://www.w3.org/1999/xlink" width="373.5pt" height="182.249993pt" viewBox="0 0 373.5 182.249993" version="1.2">
<defs>
<clipPath id="clip1">
  <path d="M 261.46875 11.742188 L 341.496094 11.742188 L 341.496094 84 L 261.46875 84 Z M 261.46875 11.742188 "/>
</clipPath>
<clipPath id="clip2">
  <path d="M 152.019531 110.382812 L 234.292969 110.382812 L 234.292969 163.488281 L 152.019531 163.488281 Z M 152.019531 110.382812 "/>
</clipPath>
<clipPath id="clip3">
  <path d="M 193.25 48.089844 L 249.347656 48.089844 L 249.347656 104 L 193.25 104 Z M 193.25 48.089844 "/>
</clipPath>
<clipPath id="clip4">
  <path d="M 25.296875 102.382812 L 59.703125 102.382812 L 59.703125 136.785156 L 25.296875 136.785156 Z M 25.296875 102.382812 "/>
</clipPath>
<clipPath id="clip5">
  <path d="M 94.117188 0 L 108 0 L 108 48 L 94.117188 48 Z M 94.117188 0 "/>
</clipPath>
<clipPath id="clip6">
  <path d="M 106 40 L 110 40 L 110 54.6875 L 106 54.6875 Z M 106 40 "/>
</clipPath>
<clipPath id="clip7">
  <path d="M 208 23 L 242.957031 23 L 242.957031 42 L 208 42 Z M 208 23 "/>
</clipPath>
<clipPath id="clip8">
  <path d="M 86.460938 90.871094 L 123.109375 90.871094 L 123.109375 127.519531 L 86.460938 127.519531 Z M 86.460938 90.871094 "/>
</clipPath>
<clipPath id="clip9">
  <path d="M 21 41.054688 L 66.558594 41.054688 L 66.558594 50 L 21 50 Z M 21 41.054688 "/>
</clipPath>
<clipPath id="clip10">
  <path d="M 21 48 L 66.558594 48 L 66.558594 84.433594 L 21 84.433594 Z M 21 48 "/>
</clipPath>
<clipPath id="clip11">
  <path d="M 18.691406 77 L 64 77 L 64 84.433594 L 18.691406 84.433594 Z M 18.691406 77 "/>
</clipPath>
<clipPath id="clip12">
  <path d="M 270.152344 93 L 302 93 L 302 134 L 270.152344 134 Z M 270.152344 93 "/>
</clipPath>
<clipPath id="clip13">
  <path d="M 270.152344 90.871094 L 334 90.871094 L 334 112 L 270.152344 112 Z M 270.152344 90.871094 "/>
</clipPath>
<clipPath id="clip14">
  <path d="M 296 139 L 329 139 L 329 163.28125 L 296 163.28125 Z M 296 139 "/>
</clipPath>
<clipPath id="clip15">
  <path d="M 328 120 L 359.902344 120 L 359.902344 163.28125 L 328 163.28125 Z M 328 120 "/>
</clipPath>
<clipPath id="clip16">
  <path d="M 349 117 L 359.902344 117 L 359.902344 124 L 349 124 Z M 349 117 "/>
</clipPath>
<clipPath id="clip17">
  <path d="M 354 108 L 359.902344 108 L 359.902344 118 L 354 118 Z M 354 108 "/>
</clipPath>
<clipPath id="clip18">
  <path d="M 349 105 L 359.902344 105 L 359.902344 112 L 349 112 Z M 349 105 "/>
</clipPath>
<clipPath id="clip19">
  <path d="M 133.964844 79 L 159.0625 79 L 159.0625 109.347656 L 133.964844 109.347656 Z M 133.964844 79 "/>
</clipPath>
<clipPath id="clip20">
  <path d="M 139 72.699219 L 144 72.699219 L 144 78 L 139 78 Z M 139 72.699219 "/>
</clipPath>
<clipPath id="clip21">
  <path d="M 144 72.699219 L 149 72.699219 L 149 78 L 144 78 Z M 144 72.699219 "/>
</clipPath>
<clipPath id="clip22">
  <path d="M 149 72.699219 L 153 72.699219 L 153 78 L 149 78 Z M 149 72.699219 "/>
</clipPath>
<clipPath id="clip23">
  <path d="M 60 143.039062 L 115.988281 143.039062 L 115.988281 156.5 L 60 156.5 Z M 60 143.039062 "/>
</clipPath>
<clipPath id="clip24">
  <path d="M 123 48.089844 L 140 48.089844 L 140 68 L 123 68 Z M 123 48.089844 "/>
</clipPath>
<clipPath id="clip25">
  <path d="M 142 52 L 190.871094 52 L 190.871094 65 L 142 65 Z M 142 52 "/>
</clipPath>
</defs>
<g id="surface1">
<g clip-path="url(#clip1)" clip-rule="nonzero">
<path style=" stroke:none;fill-rule:evenodd;fill:rgb(97.648621%,96.078491%,96.078491%);fill-opacity:1;" d="M 317.976562 11.886719 C 316.628906 11.84375 315.222656 12.074219 313.808594 12.53125 C 310.984375 13.441406 308.023438 15.214844 304.984375 17.667969 C 303.792969 18.632812 302.59375 19.730469 301.386719 20.898438 C 300.210938 19.761719 299.03125 18.691406 297.867188 17.75 C 294.832031 15.296875 291.878906 13.523438 289.0625 12.613281 C 286.242188 11.707031 283.4375 11.679688 281.136719 13 C 278.832031 14.320312 277.453125 16.746094 276.835938 19.625 C 276.21875 22.503906 276.285156 25.933594 276.90625 29.773438 C 277.121094 31.105469 277.429688 32.503906 277.78125 33.929688 C 276.464844 34.324219 275.1875 34.742188 274 35.203125 C 270.425781 36.589844 267.464844 38.25 265.308594 40.226562 C 263.152344 42.203125 261.761719 44.601562 261.761719 47.234375 C 261.761719 49.867188 263.152344 52.261719 265.308594 54.238281 C 267.464844 56.214844 270.425781 57.878906 274 59.265625 C 275.269531 59.757812 276.640625 60.203125 278.058594 60.621094 C 277.546875 62.511719 277.132812 64.347656 276.851562 66.085938 C 276.230469 69.929688 276.167969 73.359375 276.785156 76.242188 C 277.40625 79.128906 278.785156 81.570312 281.097656 82.894531 C 283.414062 84.222656 286.230469 84.191406 289.054688 83.28125 C 291.878906 82.371094 294.835938 80.601562 297.875 78.144531 C 299.054688 77.191406 300.246094 76.105469 301.441406 74.949219 C 302.640625 76.113281 303.839844 77.203125 305.027344 78.164062 C 308.0625 80.617188 311.015625 82.386719 313.835938 83.296875 C 316.65625 84.203125 319.457031 84.230469 321.761719 82.910156 C 324.066406 81.589844 325.441406 79.164062 326.058594 76.285156 C 326.675781 73.40625 326.609375 69.980469 325.988281 66.140625 C 325.703125 64.394531 325.292969 62.554688 324.78125 60.65625 C 326.242188 60.226562 327.660156 59.773438 328.964844 59.265625 C 332.539062 57.878906 335.5 56.214844 337.65625 54.238281 C 339.8125 52.261719 341.203125 49.867188 341.203125 47.234375 C 341.203125 44.601562 339.8125 42.203125 337.65625 40.226562 C 335.5 38.25 332.539062 36.589844 328.964844 35.203125 C 327.761719 34.734375 326.464844 34.3125 325.128906 33.914062 C 325.480469 32.476562 325.792969 31.070312 326.011719 29.726562 C 326.632812 25.886719 326.695312 22.453125 326.078125 19.566406 C 325.457031 16.683594 324.078125 14.246094 321.761719 12.917969 C 320.605469 12.253906 319.320312 11.933594 317.976562 11.886719 Z M 317.816406 15.378906 C 318.664062 15.402344 319.382812 15.601562 320 15.953125 C 321.230469 16.660156 322.144531 18.035156 322.628906 20.300781 C 323.113281 22.566406 323.097656 25.625 322.523438 29.175781 C 322.328125 30.390625 322.042969 31.679688 321.71875 32.996094 C 318.1875 32.152344 314.316406 31.527344 310.195312 31.160156 C 308.125 28.308594 305.996094 25.714844 303.851562 23.410156 C 304.988281 22.308594 306.113281 21.28125 307.214844 20.390625 C 310.019531 18.125 312.675781 16.582031 314.894531 15.867188 C 316.003906 15.507812 316.972656 15.355469 317.816406 15.378906 Z M 285.058594 15.386719 C 285.910156 15.363281 286.882812 15.519531 287.992188 15.875 C 290.214844 16.59375 292.878906 18.136719 295.6875 20.40625 C 296.765625 21.277344 297.867188 22.285156 298.976562 23.359375 C 296.816406 25.683594 294.671875 28.300781 292.589844 31.175781 C 288.480469 31.550781 284.628906 32.179688 281.113281 33.027344 C 280.792969 31.714844 280.507812 30.433594 280.3125 29.226562 C 279.738281 25.675781 279.722656 22.613281 280.210938 20.34375 C 280.699219 18.070312 281.617188 16.683594 282.863281 15.96875 C 283.484375 15.613281 284.210938 15.410156 285.058594 15.386719 Z M 301.441406 25.878906 C 302.847656 27.398438 304.253906 29.0625 305.648438 30.855469 C 304.277344 30.796875 302.890625 30.761719 301.484375 30.761719 C 300.046875 30.761719 298.632812 30.796875 297.234375 30.855469 C 298.628906 29.066406 300.035156 27.402344 301.441406 25.878906 Z M 301.484375 34.226562 C 303.828125 34.226562 306.117188 34.324219 308.34375 34.484375 C 309.875 36.671875 311.371094 38.988281 312.796875 41.441406 C 314.050781 43.597656 315.183594 45.75 316.214844 47.878906 C 315.171875 50.03125 314.019531 52.214844 312.75 54.398438 C 311.632812 56.324219 310.464844 58.152344 309.277344 59.914062 C 306.761719 60.121094 304.160156 60.238281 301.484375 60.238281 C 298.742188 60.238281 296.078125 60.117188 293.507812 59.898438 C 292.339844 58.160156 291.195312 56.359375 290.09375 54.464844 C 288.824219 52.285156 287.679688 50.109375 286.636719 47.957031 C 287.683594 45.796875 288.835938 43.605469 290.109375 41.414062 C 291.527344 38.972656 293.019531 36.667969 294.542969 34.492188 C 296.792969 34.324219 299.109375 34.226562 301.484375 34.226562 Z M 312.789062 34.914062 C 315.632812 35.265625 318.304688 35.757812 320.792969 36.34375 C 320.054688 38.746094 319.144531 41.257812 318.042969 43.847656 C 317.328125 42.476562 316.589844 41.105469 315.789062 39.726562 C 314.816406 38.058594 313.808594 36.46875 312.789062 34.914062 Z M 289.992188 34.941406 C 288.992188 36.464844 288.007812 38.027344 287.058594 39.660156 C 286.25 41.054688 285.492188 42.449219 284.769531 43.835938 C 283.679688 41.257812 282.773438 38.761719 282.042969 36.375 C 284.511719 35.785156 287.167969 35.296875 289.992188 34.941406 Z M 324.207031 37.253906 C 325.429688 37.625 326.613281 38.007812 327.695312 38.425781 C 330.992188 39.707031 333.601562 41.222656 335.292969 42.773438 C 336.984375 44.324219 337.714844 45.800781 337.714844 47.234375 C 337.714844 48.667969 336.984375 50.144531 335.292969 51.695312 C 333.601562 53.246094 330.992188 54.761719 327.695312 56.039062 C 326.492188 56.507812 325.167969 56.933594 323.792969 57.335938 C 322.808594 54.316406 321.558594 51.171875 320.066406 47.957031 C 321.78125 44.269531 323.164062 40.671875 324.207031 37.253906 Z M 278.699219 37.273438 C 279.730469 40.65625 281.097656 44.214844 282.789062 47.867188 C 281.285156 51.097656 280.027344 54.265625 279.042969 57.296875 C 277.714844 56.90625 276.433594 56.492188 275.269531 56.039062 C 271.972656 54.761719 269.363281 53.246094 267.671875 51.695312 C 265.980469 50.144531 265.25 48.667969 265.25 47.234375 C 265.25 45.800781 265.980469 44.324219 267.671875 42.773438 C 269.363281 41.222656 271.972656 39.707031 275.269531 38.425781 C 276.335938 38.011719 277.5 37.636719 278.699219 37.273438 Z M 301.484375 39.355469 C 296.734375 39.355469 292.851562 43.214844 292.851562 47.929688 C 292.851562 52.648438 296.734375 56.507812 301.484375 56.507812 C 306.230469 56.507812 310.113281 52.648438 310.113281 47.929688 C 310.113281 43.214844 306.230469 39.355469 301.484375 39.355469 Z M 284.808594 51.988281 C 285.535156 53.382812 286.292969 54.78125 287.105469 56.183594 C 287.742188 57.277344 288.394531 58.347656 289.054688 59.394531 C 286.738281 59.074219 284.53125 58.671875 282.464844 58.191406 C 283.121094 56.1875 283.910156 54.109375 284.808594 51.988281 Z M 318.085938 51.988281 C 318.992188 54.117188 319.78125 56.199219 320.441406 58.203125 C 318.363281 58.683594 316.152344 59.085938 313.828125 59.402344 C 314.5 58.34375 315.160156 57.261719 315.804688 56.152344 C 316.613281 54.761719 317.367188 53.371094 318.085938 51.988281 Z M 281.46875 61.519531 C 284.59375 62.257812 287.980469 62.820312 291.570312 63.191406 C 293.96875 66.632812 296.464844 69.730469 298.976562 72.433594 C 297.855469 73.523438 296.738281 74.546875 295.648438 75.425781 C 292.84375 77.695312 290.183594 79.234375 287.964844 79.949219 C 285.75 80.664062 284.09375 80.570312 282.863281 79.863281 C 281.628906 79.15625 280.722656 77.777344 280.234375 75.511719 C 279.75 73.25 279.761719 70.191406 280.335938 66.644531 C 280.597656 65.035156 280.984375 63.308594 281.46875 61.519531 Z M 321.4375 61.535156 C 321.925781 63.332031 322.316406 65.0625 322.578125 66.683594 C 323.152344 70.234375 323.167969 73.296875 322.679688 75.566406 C 322.191406 77.839844 321.28125 79.226562 320.035156 79.941406 C 318.792969 80.65625 317.121094 80.75 314.898438 80.03125 C 312.675781 79.316406 310.011719 77.773438 307.203125 75.503906 C 306.105469 74.617188 304.984375 73.585938 303.851562 72.488281 C 306.382812 69.773438 308.898438 66.660156 311.308594 63.195312 C 314.910156 62.832031 318.304688 62.269531 321.4375 61.535156 Z M 296.074219 63.542969 C 297.847656 63.636719 299.644531 63.703125 301.484375 63.703125 C 303.261719 63.703125 305 63.640625 306.714844 63.550781 C 304.960938 65.902344 303.171875 68.039062 301.390625 69.964844 C 299.613281 68.035156 297.828125 65.894531 296.074219 63.542969 Z M 296.074219 63.542969 "/>
</g>
<g clip-path="url(#clip2)" clip-rule="nonzero">
<path style=" stroke:none;fill-rule:nonzero;fill:rgb(97.648621%,96.078491%,96.078491%);fill-opacity:1;" d="M 208.550781 110.773438 C 208.136719 110.773438 207.753906 111.109375 207.753906 111.574219 L 207.753906 126.171875 L 204.445312 124.242188 C 204.238281 124.117188 204.007812 124.058594 203.773438 124.058594 C 203.539062 124.058594 203.304688 124.117188 203.097656 124.242188 L 195.152344 128.878906 C 194.738281 129.117188 194.484375 129.558594 194.484375 130.035156 L 194.484375 139.320312 C 194.484375 139.796875 194.738281 140.238281 195.152344 140.476562 L 203.097656 145.113281 C 203.304688 145.238281 203.539062 145.296875 203.773438 145.296875 C 204.007812 145.296875 204.238281 145.238281 204.445312 145.113281 L 212.394531 140.476562 C 212.808594 140.238281 213.0625 139.796875 213.0625 139.320312 L 213.0625 114.042969 C 213.0625 113.570312 212.808594 113.136719 212.402344 112.898438 L 208.945312 110.882812 C 208.816406 110.808594 208.683594 110.773438 208.550781 110.773438 Z M 182.542969 124.058594 C 182.308594 124.058594 182.074219 124.121094 181.867188 124.242188 L 173.921875 128.878906 C 173.507812 129.117188 173.253906 129.558594 173.253906 130.035156 L 173.253906 139.320312 C 173.253906 139.796875 173.507812 140.238281 173.921875 140.476562 L 181.867188 145.113281 C 182.285156 145.355469 182.796875 145.355469 183.214844 145.113281 L 191.160156 140.476562 C 191.574219 140.238281 191.832031 139.796875 191.832031 139.320312 L 191.832031 130.035156 C 191.832031 129.558594 191.574219 129.117188 191.160156 128.878906 L 183.214844 124.242188 C 183.007812 124.121094 182.773438 124.058594 182.542969 124.058594 Z M 225.003906 124.058594 C 224.769531 124.058594 224.539062 124.117188 224.332031 124.242188 L 216.382812 128.878906 C 215.96875 129.117188 215.714844 129.558594 215.714844 130.035156 L 215.714844 139.320312 C 215.714844 139.796875 215.96875 140.238281 216.382812 140.476562 L 224.09375 145.140625 C 224.507812 145.394531 225.027344 145.394531 225.445312 145.152344 L 229.234375 142.945312 C 229.625 142.71875 229.628906 142.148438 229.234375 141.917969 L 221.023438 137.078125 L 221.023438 132.3125 L 225.003906 129.992188 L 228.984375 132.3125 L 228.984375 135.632812 C 228.984375 136.074219 229.359375 136.144531 229.605469 135.996094 C 230.609375 135.40625 233.636719 133.652344 233.636719 133.652344 C 234.039062 133.414062 234.292969 132.976562 234.292969 132.503906 L 234.292969 130.035156 C 234.292969 129.558594 234.039062 129.117188 233.625 128.878906 L 225.679688 124.242188 C 225.46875 124.117188 225.238281 124.058594 225.003906 124.058594 Z M 161.308594 124.066406 C 161.078125 124.066406 160.84375 124.125 160.636719 124.246094 L 152.691406 128.878906 C 152.277344 129.121094 152.019531 129.5625 152.019531 130.039062 L 152.019531 141.894531 C 152.019531 142.472656 152.648438 142.832031 153.144531 142.542969 L 156.671875 140.488281 C 157.078125 140.25 157.328125 139.8125 157.328125 139.339844 L 157.328125 132.324219 L 161.308594 130 L 165.289062 132.324219 L 165.289062 139.339844 C 165.289062 139.8125 165.542969 140.25 165.949219 140.488281 L 169.472656 142.542969 C 169.972656 142.832031 170.597656 142.472656 170.597656 141.894531 L 170.597656 130.039062 C 170.597656 129.5625 170.34375 129.121094 169.929688 128.878906 L 161.984375 124.246094 C 161.777344 124.125 161.542969 124.066406 161.308594 124.066406 Z M 203.773438 129.992188 L 207.753906 132.316406 L 207.753906 137.039062 L 203.773438 139.363281 L 199.792969 137.039062 L 199.792969 132.316406 Z M 225.003906 132.03125 L 222.730469 133.359375 L 222.730469 136.011719 L 225.003906 137.332031 L 227.28125 136.011719 L 227.28125 133.359375 Z M 192.910156 142.640625 C 192.636719 142.640625 192.359375 142.707031 192.121094 142.84375 L 184.65625 147.160156 C 184.164062 147.429688 183.867188 147.960938 183.867188 148.515625 L 183.867188 157.136719 C 183.867188 157.695312 184.179688 158.214844 184.65625 158.496094 L 186.621094 159.617188 C 187.5625 160.082031 187.910156 160.085938 188.335938 160.085938 C 189.742188 160.085938 190.542969 159.242188 190.542969 157.757812 L 190.542969 149.238281 C 190.542969 149.109375 190.445312 149.015625 190.328125 149.015625 L 189.382812 149.015625 C 189.253906 149.015625 189.160156 149.121094 189.160156 149.238281 L 189.160156 157.757812 C 189.160156 158.402344 188.480469 159.0625 187.367188 158.507812 L 185.324219 157.332031 C 185.257812 157.289062 185.210938 157.210938 185.210938 157.132812 L 185.210938 148.511719 C 185.210938 148.433594 185.246094 148.34375 185.324219 148.304688 L 192.789062 144 C 192.867188 143.960938 192.957031 143.960938 193.023438 144 L 200.492188 148.304688 C 200.570312 148.34375 200.605469 148.421875 200.605469 148.511719 L 200.605469 157.132812 C 200.605469 157.222656 200.554688 157.300781 200.492188 157.339844 L 193.023438 161.660156 C 192.957031 161.703125 192.851562 161.703125 192.789062 161.660156 L 190.882812 160.527344 C 190.832031 160.5 190.75 160.484375 190.699219 160.511719 C 190.171875 160.820312 190.066406 160.863281 189.574219 161.027344 C 189.445312 161.070312 189.269531 161.148438 189.644531 161.355469 L 192.121094 162.828125 C 192.367188 162.960938 192.636719 163.035156 192.910156 163.035156 C 193.191406 163.035156 193.46875 162.960938 193.6875 162.820312 L 201.148438 158.496094 C 201.640625 158.226562 201.9375 157.695312 201.9375 157.136719 L 201.9375 148.515625 C 201.9375 147.960938 201.628906 147.441406 201.148438 147.160156 L 193.6875 142.84375 C 193.453125 142.707031 193.179688 142.640625 192.910156 142.640625 Z M 204.550781 146.617188 C 203.789062 146.617188 203.121094 147.234375 203.121094 148.050781 C 203.121094 148.839844 203.761719 149.488281 204.550781 149.488281 C 205.339844 149.488281 205.980469 148.839844 205.980469 148.050781 C 205.980469 147.234375 205.324219 146.605469 204.550781 146.617188 Z M 204.535156 146.847656 C 205.207031 146.847656 205.753906 147.378906 205.753906 148.050781 C 205.753906 148.710938 205.207031 149.253906 204.535156 149.269531 C 203.875 149.269531 203.335938 148.722656 203.335938 148.050781 C 203.335938 147.378906 203.875 146.847656 204.535156 146.847656 Z M 204.011719 147.234375 L 204.011719 148.847656 L 204.316406 148.847656 L 204.316406 148.207031 L 204.601562 148.207031 C 204.71875 148.207031 204.746094 148.257812 204.773438 148.347656 C 204.773438 148.359375 204.820312 148.777344 204.835938 148.855469 L 205.167969 148.855469 C 205.128906 148.777344 205.101562 148.558594 205.089844 148.425781 C 205.050781 148.21875 205.039062 148.074219 204.820312 148.0625 C 204.9375 148.019531 205.132812 147.960938 205.132812 147.660156 C 205.132812 147.234375 204.757812 147.234375 204.566406 147.234375 Z M 204.316406 147.496094 L 204.578125 147.496094 C 204.65625 147.496094 204.808594 147.492188 204.808594 147.714844 C 204.808594 147.804688 204.769531 147.949219 204.5625 147.945312 L 204.316406 147.945312 Z M 194.910156 148.8125 C 192.777344 148.8125 191.515625 149.722656 191.515625 151.21875 C 191.515625 152.863281 192.78125 153.300781 194.820312 153.507812 C 197.261719 153.75 197.453125 154.101562 197.453125 154.582031 C 197.453125 155.421875 196.78125 155.769531 195.203125 155.769531 C 193.226562 155.769531 192.792969 155.277344 192.648438 154.296875 C 192.636719 154.191406 192.542969 154.113281 192.425781 154.113281 L 191.457031 154.113281 C 191.339844 154.113281 191.238281 154.207031 191.238281 154.335938 C 191.238281 155.589844 191.921875 157.09375 195.1875 157.09375 C 197.585938 157.089844 198.941406 156.160156 198.941406 154.53125 C 198.941406 152.914062 197.855469 152.484375 195.558594 152.175781 C 193.230469 151.863281 193 151.707031 193 151.164062 C 193 150.710938 193.191406 150.121094 194.910156 150.121094 C 196.445312 150.121094 197.019531 150.457031 197.253906 151.488281 C 197.277344 151.59375 197.351562 151.65625 197.453125 151.65625 L 198.421875 151.65625 C 198.488281 151.65625 198.542969 151.628906 198.578125 151.59375 C 198.617188 151.542969 198.644531 151.492188 198.632812 151.425781 C 198.476562 149.644531 197.300781 148.8125 194.910156 148.8125 Z M 194.910156 148.8125 "/>
</g>
<g clip-path="url(#clip3)" clip-rule="nonzero">
<path style=" stroke:none;fill-rule:evenodd;fill:rgb(97.648621%,96.078491%,96.078491%);fill-opacity:1;" d="M 221.296875 48.675781 C 205.808594 48.675781 193.25 61.234375 193.25 76.726562 C 193.25 89.117188 201.289062 99.628906 212.433594 103.335938 C 213.835938 103.59375 214.347656 102.730469 214.347656 101.988281 C 214.347656 101.320312 214.324219 99.554688 214.3125 97.214844 C 206.507812 98.910156 204.863281 93.457031 204.863281 93.457031 C 203.585938 90.214844 201.75 89.355469 201.75 89.355469 C 199.203125 87.613281 201.941406 87.648438 201.941406 87.648438 C 204.753906 87.847656 206.238281 90.542969 206.238281 90.542969 C 208.738281 94.828125 212.804688 93.589844 214.398438 92.871094 C 214.652344 91.058594 215.378906 89.824219 216.179688 89.121094 C 209.953125 88.414062 203.40625 86.007812 203.40625 75.261719 C 203.40625 72.199219 204.5 69.695312 206.292969 67.734375 C 206.003906 67.023438 205.039062 64.171875 206.566406 60.3125 C 206.566406 60.3125 208.921875 59.554688 214.28125 63.1875 C 216.515625 62.5625 218.917969 62.253906 221.300781 62.242188 C 223.683594 62.253906 226.082031 62.5625 228.324219 63.1875 C 233.675781 59.554688 236.027344 60.3125 236.027344 60.3125 C 237.558594 64.171875 236.597656 67.023438 236.304688 67.734375 C 238.105469 69.695312 239.1875 72.199219 239.1875 75.261719 C 239.1875 86.035156 232.628906 88.40625 226.382812 89.097656 C 227.390625 89.964844 228.289062 91.675781 228.289062 94.292969 C 228.289062 98.042969 228.253906 101.066406 228.253906 101.988281 C 228.253906 102.738281 228.757812 103.609375 230.179688 103.335938 C 241.316406 99.617188 249.347656 89.113281 249.347656 76.726562 C 249.347656 61.234375 236.789062 48.675781 221.296875 48.675781 Z M 221.296875 48.675781 "/>
</g>
<g clip-path="url(#clip4)" clip-rule="nonzero">
<path style=" stroke:none;fill-rule:nonzero;fill:rgb(97.648621%,96.078491%,96.078491%);fill-opacity:1;" d="M 29.597656 102.382812 C 27.242188 102.382812 25.296875 104.324219 25.296875 106.683594 L 25.296875 119.585938 L 28.164062 119.585938 L 28.164062 106.683594 C 28.164062 105.875 28.792969 105.25 29.597656 105.25 L 55.402344 105.25 C 56.207031 105.25 56.835938 105.875 56.835938 106.683594 L 56.835938 132.484375 C 56.835938 133.292969 56.207031 133.917969 55.402344 133.917969 L 48.234375 133.917969 L 48.234375 136.785156 L 55.402344 136.785156 C 57.761719 136.785156 59.703125 134.84375 59.703125 132.484375 L 59.703125 106.683594 C 59.703125 104.324219 57.761719 102.382812 55.402344 102.382812 Z M 31.03125 122.453125 L 31.03125 132.484375 C 31.03125 133.292969 30.40625 133.917969 29.597656 133.917969 C 28.792969 133.917969 28.164062 133.292969 28.164062 132.484375 L 28.164062 131.050781 L 25.296875 131.050781 L 25.296875 132.484375 C 25.296875 134.84375 27.242188 136.785156 29.597656 136.785156 C 31.957031 136.785156 33.898438 134.84375 33.898438 132.484375 L 33.898438 122.453125 Z M 41.066406 122.453125 C 39.375 122.453125 38.386719 123.136719 37.851562 123.710938 C 36.675781 124.980469 36.761719 126.671875 36.773438 126.75 C 36.773438 129.070312 38.878906 130.113281 40.417969 130.878906 C 41.636719 131.484375 42.5 131.953125 42.5 132.507812 C 42.5 132.515625 42.472656 133.207031 42.097656 133.589844 C 42.015625 133.671875 41.773438 133.917969 41.066406 133.917969 L 37.027344 133.917969 C 37.203125 134.46875 37.476562 135.074219 37.996094 135.605469 C 38.527344 136.144531 39.492188 136.785156 41.066406 136.785156 C 42.640625 136.785156 43.609375 136.140625 44.140625 135.597656 C 45.363281 134.359375 45.363281 132.652344 45.363281 132.484375 C 45.363281 130.136719 43.238281 129.078125 41.6875 128.308594 C 40.488281 127.710938 39.640625 127.25 39.640625 126.664062 C 39.640625 126.65625 39.613281 126.011719 39.957031 125.65625 C 40.171875 125.433594 40.542969 125.320312 41.066406 125.320312 L 45.121094 125.320312 C 44.640625 123.875 43.40625 122.453125 41.066406 122.453125 Z M 41.066406 122.453125 "/>
</g>
<path style=" stroke:none;fill-rule:nonzero;fill:rgb(34.899902%,58.81958%,21.179199%);fill-opacity:1;" d="M 107.09375 -2.6875 L 108.621094 0.199219 C 108.957031 0.722656 109.339844 1.203125 109.777344 1.640625 C 111.058594 2.925781 112.277344 4.273438 113.367188 5.71875 C 115.960938 9.136719 117.710938 12.929688 118.960938 17.039062 C 119.707031 19.546875 120.117188 22.117188 120.144531 24.722656 C 120.273438 32.496094 117.617188 39.175781 112.242188 44.726562 C 111.371094 45.609375 110.433594 46.414062 109.433594 47.140625 C 108.898438 47.140625 108.652344 46.71875 108.433594 46.359375 C 108.011719 45.652344 107.777344 44.882812 107.652344 44.101562 C 107.460938 43.160156 107.335938 42.21875 107.402344 41.246094 L 107.402344 40.808594 C 107.371094 40.710938 106.902344 -2.464844 107.089844 -2.6875 Z M 107.09375 -2.6875 "/>
<g clip-path="url(#clip5)" clip-rule="nonzero">
<path style=" stroke:none;fill-rule:nonzero;fill:rgb(42.349243%,67.449951%,28.239441%);fill-opacity:1;" d="M 107.09375 -2.78125 C 107.027344 -2.90625 106.964844 -2.8125 106.90625 -2.75 C 106.933594 -2.121094 106.714844 -1.558594 106.371094 -1.023438 C 105.996094 -0.488281 105.496094 -0.0820312 104.996094 0.355469 C 102.214844 2.769531 100.03125 5.6875 98.28125 8.949219 C 95.96875 13.339844 94.75 18.042969 94.410156 22.996094 C 94.253906 24.785156 94.96875 31.085938 95.535156 32.90625 C 97.0625 37.734375 99.8125 41.777344 103.390625 45.289062 C 104.265625 46.136719 105.203125 46.921875 106.167969 47.671875 C 106.449219 47.671875 106.480469 47.421875 106.542969 47.234375 C 106.667969 46.832031 106.761719 46.425781 106.824219 46.011719 C 107.105469 44.441406 107.261719 42.875 107.449219 41.308594 L 107.105469 -2.78125 Z M 107.09375 -2.78125 "/>
</g>
<g clip-path="url(#clip6)" clip-rule="nonzero">
<path style=" stroke:none;fill-rule:nonzero;fill:rgb(97.648621%,96.078491%,96.078491%);fill-opacity:1;" d="M 108.625 49.054688 C 108.6875 48.332031 109.046875 47.738281 109.40625 47.140625 C 109.03125 46.988281 108.75 46.671875 108.53125 46.324219 C 108.34375 46.011719 108.1875 45.621094 108.0625 45.289062 C 107.625 43.972656 107.53125 42.59375 107.40625 41.246094 L 107.40625 40.429688 C 107.253906 40.554688 107.21875 41.621094 107.21875 41.777344 C 107.125 43.21875 106.9375 44.632812 106.65625 46.011719 C 106.5625 46.574219 106.503906 47.140625 106.15625 47.640625 C 106.15625 47.703125 106.15625 47.765625 106.1875 47.859375 C 106.75 49.523438 106.90625 51.214844 107.003906 52.941406 L 107.003906 53.566406 C 107.003906 54.320312 106.972656 54.164062 107.597656 54.410156 C 107.84375 54.507812 108.128906 54.539062 108.378906 54.726562 C 108.566406 54.726562 108.597656 54.570312 108.597656 54.445312 L 108.503906 53.410156 L 108.503906 50.523438 C 108.472656 50.019531 108.566406 49.519531 108.628906 49.046875 Z M 108.625 49.054688 "/>
</g>
<path style=" stroke:none;fill-rule:nonzero;fill:rgb(97.648621%,96.078491%,96.078491%);fill-opacity:1;" d="M 132.347656 35.9375 L 132.347656 38.925781 C 132.34375 39.042969 132.347656 39.160156 132.367188 39.277344 C 132.40625 39.632812 132.621094 39.847656 132.9375 39.949219 C 133.234375 40.027344 133.535156 40.085938 133.839844 40.125 C 134.015625 40.144531 134.074219 40.222656 134.097656 40.410156 C 134.117188 41.082031 134.058594 41.160156 133.410156 41.117188 C 131.90625 41.039062 130.394531 41.019531 128.890625 41.117188 L 128.746094 41.117188 C 128.277344 41.140625 128.238281 41.097656 128.238281 40.628906 C 128.238281 40.546875 128.257812 40.449219 128.257812 40.371094 C 128.257812 40.226562 128.355469 40.15625 128.492188 40.15625 C 128.808594 40.117188 129.101562 40.039062 129.394531 39.980469 C 129.804688 39.882812 130.039062 39.625 130.078125 39.210938 C 130.136719 38.761719 130.136719 38.289062 130.136719 37.835938 L 130.15625 32.570312 C 130.171875 32.230469 130.027344 31.980469 129.726562 31.824219 C 129.371094 31.625 129 31.46875 128.609375 31.351562 C 128.492188 31.3125 128.375 31.292969 128.277344 31.234375 C 127.992188 31.097656 127.984375 30.839844 128.257812 30.683594 C 128.355469 30.625 128.472656 30.585938 128.589844 30.566406 C 129.78125 30.390625 130.941406 30.09375 132.074219 29.679688 C 132.308594 29.601562 132.367188 29.625 132.390625 29.859375 C 132.410156 30.003906 132.390625 30.175781 132.367188 30.308594 C 132.328125 30.566406 132.328125 30.820312 132.328125 31.058594 C 132.328125 31.15625 132.351562 31.253906 132.449219 31.3125 C 132.542969 31.371094 132.644531 31.3125 132.734375 31.257812 C 133.144531 30.941406 133.554688 30.644531 134.007812 30.394531 C 134.652344 30.039062 135.339844 29.726562 136.082031 29.625 C 136.984375 29.507812 137.765625 29.746094 138.453125 30.335938 C 138.738281 30.589844 138.984375 30.878906 139.195312 31.199219 C 139.390625 31.484375 139.410156 31.492188 139.664062 31.296875 C 140.410156 30.746094 141.191406 30.253906 142.035156 29.902344 C 142.914062 29.527344 143.816406 29.46875 144.714844 29.785156 C 145.636719 30.117188 146.261719 30.765625 146.636719 31.648438 C 146.949219 32.355469 147.085938 33.085938 147.085938 33.851562 L 147.085938 39.113281 C 147.085938 39.46875 147.226562 39.691406 147.574219 39.863281 C 147.945312 40.007812 148.359375 40.078125 148.75 40.15625 C 149.003906 40.214844 149.003906 40.214844 149.003906 40.472656 C 148.964844 41.121094 148.90625 41.160156 148.277344 41.121094 C 146.707031 41.03125 145.136719 41.03125 143.5625 41.121094 C 143.246094 41.140625 143.246094 41.140625 143.230469 40.824219 L 143.230469 40.726562 C 143.210938 40.195312 143.210938 40.195312 143.71875 40.082031 L 144.230469 39.941406 C 144.40625 39.902344 144.550781 39.808594 144.664062 39.664062 C 144.777344 39.523438 144.835938 39.359375 144.835938 39.175781 L 144.894531 37.703125 L 144.855469 33.851562 C 144.839844 33.507812 144.769531 33.171875 144.640625 32.851562 C 144.148438 31.652344 143.074219 31.21875 142.035156 31.335938 C 141.253906 31.417969 140.566406 31.730469 139.921875 32.183594 C 139.785156 32.28125 139.6875 32.398438 139.707031 32.597656 C 139.882812 33.855469 139.765625 35.113281 139.785156 36.367188 L 139.785156 39.101562 C 139.785156 39.59375 139.980469 39.828125 140.453125 39.945312 L 141.355469 40.144531 C 141.492188 40.164062 141.570312 40.222656 141.570312 40.378906 L 141.570312 40.523438 C 141.546875 41.074219 141.511719 41.097656 140.960938 41.089844 C 139.394531 41.011719 137.828125 41.035156 136.285156 41.089844 C 135.753906 41.113281 135.710938 41.054688 135.734375 40.515625 C 135.753906 40.199219 135.792969 40.183594 136.085938 40.125 L 136.730469 40.007812 C 137.304688 39.886719 137.515625 39.671875 137.554688 39.0625 L 137.609375 37.746094 L 137.574219 33.796875 C 137.535156 33.304688 137.429688 32.832031 137.160156 32.382812 C 136.769531 31.652344 136.160156 31.28125 135.320312 31.242188 C 134.480469 31.183594 133.734375 31.496094 133.027344 31.886719 C 132.539062 32.175781 132.324219 32.515625 132.363281 33.085938 L 132.363281 35.957031 Z M 169.222656 36.058594 L 169.222656 38.828125 C 169.226562 39.027344 169.242188 39.222656 169.261719 39.417969 C 169.273438 39.550781 169.320312 39.671875 169.40625 39.773438 C 169.492188 39.875 169.601562 39.941406 169.734375 39.96875 C 170.070312 40.066406 170.417969 40.128906 170.769531 40.144531 C 170.964844 40.164062 171.003906 40.242188 171.023438 40.402344 L 171.023438 40.539062 C 171.003906 41.226562 170.925781 41.304688 170.261719 41.265625 C 168.773438 41.167969 167.285156 41.1875 165.796875 41.265625 L 165.226562 41.289062 C 165.109375 41.289062 165.082031 41.230469 165.050781 41.148438 C 164.992188 40.875 164.992188 40.597656 165.050781 40.324219 C 165.070312 40.207031 165.148438 40.179688 165.265625 40.148438 C 165.550781 40.109375 165.792969 40.050781 166.066406 40.003906 C 166.554688 39.886719 166.730469 39.6875 166.75 39.179688 L 166.808594 37.527344 L 166.808594 32.695312 C 166.808594 32.339844 166.671875 32.125 166.359375 31.964844 C 166.007812 31.769531 165.632812 31.632812 165.242188 31.496094 C 165.125 31.457031 165.007812 31.414062 164.910156 31.355469 C 164.652344 31.179688 164.621094 30.925781 164.871094 30.726562 C 164.984375 30.632812 165.113281 30.582031 165.261719 30.570312 C 166.515625 30.375 167.726562 30.097656 168.902344 29.625 C 169.039062 29.570312 169.097656 29.605469 169.15625 29.726562 C 169.214844 29.84375 169.234375 29.980469 169.214844 30.117188 L 169.15625 31.039062 C 169.15625 31.15625 169.101562 31.328125 169.195312 31.375 C 169.3125 31.453125 169.390625 31.277344 169.488281 31.230469 C 170.070312 30.742188 170.703125 30.335938 171.390625 30.011719 C 171.996094 29.726562 172.621094 29.539062 173.328125 29.582031 C 174.640625 29.660156 175.578125 30.328125 176.183594 31.488281 C 176.5 32.097656 176.632812 32.765625 176.691406 33.453125 L 176.75 34.890625 L 176.769531 39.234375 C 176.789062 39.566406 176.90625 39.785156 177.238281 39.902344 C 177.585938 40.015625 177.9375 40.101562 178.296875 40.15625 C 178.613281 40.195312 178.628906 40.253906 178.648438 40.550781 L 178.648438 40.648438 C 178.609375 41.316406 178.570312 41.335938 177.90625 41.292969 C 176.441406 41.214844 174.980469 41.214844 173.519531 41.292969 C 173.324219 41.316406 173.128906 41.292969 172.949219 41.316406 C 172.828125 41.316406 172.75 41.292969 172.730469 41.175781 C 172.695312 40.921875 172.652344 40.667969 172.710938 40.390625 C 172.730469 40.273438 172.792969 40.214844 172.925781 40.191406 L 173.828125 40.050781 C 174.144531 39.96875 174.320312 39.761719 174.359375 39.472656 L 174.398438 38.921875 L 174.378906 34.816406 C 174.378906 34.34375 174.359375 33.875 174.261719 33.402344 C 174.027344 32.394531 173.261719 31.675781 172.226562 31.578125 C 171.324219 31.480469 170.507812 31.714844 169.761719 32.203125 C 169.386719 32.441406 169.230469 32.773438 169.230469 33.1875 L 169.230469 36.15625 C 169.230469 36.097656 169.230469 36.097656 169.25 36.097656 Z M 169.222656 36.058594 "/>
<g clip-path="url(#clip7)" clip-rule="nonzero">
<path style=" stroke:none;fill-rule:nonzero;fill:rgb(97.648621%,96.078491%,96.078491%);fill-opacity:1;" d="M 226.550781 30.496094 C 226.335938 29.0625 225.808594 27.785156 224.886719 26.664062 C 224.074219 25.660156 223.066406 24.914062 221.871094 24.425781 C 220.640625 23.914062 219.328125 23.757812 217.996094 23.71875 C 217.449219 23.699219 209.96875 23.816406 209.421875 23.71875 C 209.285156 23.699219 209.1875 23.738281 209.105469 23.855469 C 209.007812 24 208.910156 24.148438 208.851562 24.308594 C 208.617188 24.839844 208.617188 24.796875 209.183594 24.875 C 209.652344 24.957031 210.105469 24.996094 210.554688 25.132812 C 210.964844 25.269531 211.261719 25.507812 211.355469 25.957031 C 211.394531 26.171875 211.4375 33.089844 211.4375 36.3125 L 211.355469 38.613281 C 211.335938 38.789062 211.320312 38.964844 211.261719 39.125 C 211.179688 39.359375 211.046875 39.554688 210.808594 39.65625 C 210.550781 39.777344 210.273438 39.851562 209.988281 39.871094 C 209.457031 39.929688 209.378906 39.949219 209.203125 40.539062 L 209.148438 40.753906 C 209.109375 41.011719 209.128906 41.050781 209.382812 41.050781 L 215.234375 41.109375 L 217.527344 41.070312 L 219.113281 40.871094 C 220.914062 40.539062 222.519531 39.789062 223.886719 38.59375 C 224.675781 37.894531 225.304688 37.066406 225.765625 36.117188 C 226.316406 35.015625 226.550781 33.816406 226.609375 32.601562 C 226.707031 31.914062 226.667969 31.207031 226.550781 30.5 Z M 223.710938 33.285156 C 223.632812 34.542969 223.378906 35.761719 222.734375 36.863281 C 221.914062 38.296875 220.738281 39.300781 219.113281 39.652344 C 218.410156 39.792969 217.703125 39.867188 216.964844 39.769531 C 216.433594 39.710938 215.929688 39.652344 215.4375 39.472656 C 214.558594 39.15625 214.242188 38.613281 214.226562 37.75 L 214.203125 25.902344 C 214.203125 25.195312 214.519531 25.039062 215.027344 25.015625 C 215.789062 24.960938 216.574219 24.976562 217.335938 25.054688 C 218.152344 25.136719 218.945312 25.328125 219.707031 25.632812 C 220.273438 25.867188 220.789062 26.191406 221.253906 26.59375 C 222.308594 27.5 223.015625 28.636719 223.402344 29.972656 C 223.71875 31.054688 223.773438 32.15625 223.71875 33.253906 Z M 242.820312 35.210938 C 242.820312 35.09375 242.820312 34.996094 242.800781 34.878906 C 242.625 33.796875 242.054688 32.972656 241.175781 32.34375 C 240.609375 31.933594 239.960938 31.65625 239.296875 31.460938 C 239.179688 31.421875 239.082031 31.382812 238.964844 31.363281 C 238.984375 31.265625 239.042969 31.246094 239.101562 31.222656 C 239.492188 31.027344 239.867188 30.8125 240.199219 30.515625 C 240.804688 30.007812 241.199219 29.375 241.410156 28.609375 C 241.527344 28.199219 241.527344 27.785156 241.488281 27.351562 C 241.457031 26.839844 241.316406 26.359375 241.066406 25.910156 C 240.816406 25.464844 240.480469 25.09375 240.058594 24.796875 C 239.15625 24.128906 238.101562 23.855469 237.007812 23.835938 C 234.890625 23.796875 232.757812 23.835938 230.648438 23.835938 C 230.039062 23.835938 229.433594 23.871094 228.804688 23.777344 C 228.6875 23.757812 228.519531 23.71875 228.433594 23.855469 C 228.289062 24.113281 228.117188 24.367188 228.0625 24.660156 C 228.042969 24.796875 228.082031 24.875 228.238281 24.898438 L 229.589844 25.09375 C 230.117188 25.171875 230.492188 25.46875 230.527344 25.9375 C 230.566406 26.265625 230.585938 26.59375 230.585938 26.921875 L 230.546875 30.59375 L 230.527344 37.863281 C 230.527344 38.296875 230.46875 38.710938 230.390625 39.140625 C 230.34375 39.445312 230.175781 39.644531 229.878906 39.730469 C 229.488281 39.847656 229.117188 39.964844 228.707031 39.964844 C 228.449219 39.941406 228.277344 40.050781 228.199219 40.300781 C 228.117188 40.476562 228.054688 40.671875 228.019531 40.851562 C 227.984375 41.085938 228.042969 41.167969 228.277344 41.136719 C 228.453125 41.117188 234.914062 41.277344 236.125 41.15625 C 236.851562 41.078125 237.558594 40.980469 238.277344 40.765625 C 239.511719 40.371094 240.648438 39.800781 241.546875 38.839844 C 242.292969 38.050781 242.722656 37.109375 242.761719 36.007812 C 242.816406 35.753906 242.816406 35.5 242.816406 35.222656 Z M 233.328125 27.160156 L 233.382812 25.589844 C 233.382812 25.292969 233.5 25.160156 233.796875 25.097656 C 234.265625 25 234.734375 25.039062 235.203125 25.058594 C 235.675781 25.097656 236.125 25.15625 236.59375 25.292969 C 237.453125 25.550781 238.121094 26.042969 238.511719 26.867188 C 238.695312 27.246094 238.785156 27.644531 238.785156 28.066406 C 238.808594 28.617188 238.765625 29.148438 238.550781 29.675781 C 238.21875 30.402344 237.691406 30.875 236.925781 31.011719 C 236.164062 31.152344 233.992188 31.09375 233.660156 31.09375 C 233.367188 31.09375 233.34375 31.054688 233.34375 30.757812 L 233.34375 28.90625 C 233.296875 28.332031 233.292969 27.753906 233.324219 27.179688 Z M 239.6875 37.730469 C 239.355469 38.617188 238.746094 39.226562 237.886719 39.558594 C 237.414062 39.734375 236.945312 39.84375 236.453125 39.8125 C 235.847656 39.792969 235.242188 39.8125 234.632812 39.695312 C 233.8125 39.519531 233.441406 38.730469 233.382812 38.164062 C 233.285156 37.160156 233.34375 36.136719 233.324219 35.390625 L 233.324219 32.796875 C 233.324219 32.480469 233.363281 32.386719 233.695312 32.386719 L 235.535156 32.40625 L 236.789062 32.550781 C 237.671875 32.746094 238.472656 33.082031 239.101562 33.769531 C 239.609375 34.316406 239.882812 34.984375 239.941406 35.714844 C 240 36.398438 239.960938 37.070312 239.707031 37.71875 Z M 239.6875 37.730469 "/>
</g>
<path style=" stroke:none;fill-rule:nonzero;fill:rgb(97.648621%,96.078491%,96.078491%);fill-opacity:1;" d="M 189.953125 31.8125 L 190.464844 31.890625 C 191.011719 31.910156 191.65625 31.714844 191.851562 30.949219 C 191.960938 30.574219 191.960938 30.199219 191.851562 29.828125 C 191.734375 29.828125 191.675781 29.925781 191.617188 29.964844 C 191.324219 30.199219 190.992188 30.339844 190.640625 30.378906 C 189.933594 30.457031 189.230469 30.417969 188.546875 30.160156 L 187.585938 29.828125 C 186.910156 29.605469 186.21875 29.515625 185.507812 29.554688 C 184.511719 29.632812 183.570312 29.96875 182.691406 30.4375 C 181.75 30.949219 181.085938 31.714844 180.769531 32.757812 C 180.59375 33.367188 180.574219 33.996094 180.652344 34.625 C 180.847656 36.058594 181.59375 37.0625 182.921875 37.59375 C 183.003906 37.613281 183.0625 37.648438 183.136719 37.671875 C 183.316406 37.769531 183.335938 37.867188 183.175781 38.003906 L 182.6875 38.339844 L 181.511719 39.066406 C 181.21875 39.242188 181.179688 39.382812 181.277344 39.695312 C 181.398438 40.070312 181.605469 40.382812 181.902344 40.636719 C 182.175781 40.871094 182.472656 41.054688 182.804688 41.1875 C 183.019531 41.285156 183.019531 41.332031 182.824219 41.503906 L 181.707031 42.308594 C 181.335938 42.597656 180.960938 42.882812 180.652344 43.253906 C 180.429688 43.488281 180.277344 43.765625 180.195312 44.078125 C 180.113281 44.390625 180.105469 44.707031 180.179688 45.019531 C 180.328125 45.71875 180.667969 46.308594 181.199219 46.789062 C 181.714844 47.269531 182.316406 47.597656 183 47.773438 C 184.09375 48.089844 185.230469 48.105469 186.34375 47.890625 C 187.949219 47.59375 189.351562 46.882812 190.457031 45.667969 C 191.21875 44.863281 191.667969 43.921875 191.710938 42.792969 C 191.730469 42.46875 191.695312 42.148438 191.605469 41.835938 C 191.511719 41.523438 191.371094 41.234375 191.175781 40.972656 C 190.984375 40.707031 190.75 40.488281 190.476562 40.308594 C 190.207031 40.128906 189.914062 40 189.59375 39.925781 L 188.539062 39.730469 L 185.308594 39.441406 C 184.957031 39.421875 184.605469 39.363281 184.308594 39.183594 C 183.9375 38.949219 183.839844 38.496094 184.074219 38.203125 C 184.25 37.988281 184.464844 37.847656 184.742188 37.828125 L 185.367188 37.773438 C 186.640625 37.640625 187.742188 37.136719 188.675781 36.257812 C 189.167969 35.800781 189.5 35.242188 189.671875 34.589844 C 189.90625 33.742188 189.90625 32.863281 189.710938 32 C 189.652344 31.785156 189.671875 31.765625 189.945312 31.804688 Z M 185.15625 41.597656 C 185.273438 41.621094 185.390625 41.597656 185.507812 41.597656 C 186.332031 41.636719 187.171875 41.695312 187.976562 41.914062 C 188.238281 41.992188 188.492188 42.089844 188.738281 42.210938 C 189.523438 42.640625 189.816406 43.390625 189.71875 44.195312 C 189.601562 45.078125 189.109375 45.707031 188.347656 46.121094 C 187.839844 46.410156 187.269531 46.535156 186.683594 46.59375 C 186.46875 46.613281 186.269531 46.59375 186.054688 46.59375 C 185.371094 46.613281 184.707031 46.535156 184.058594 46.257812 C 183.609375 46.082031 183.238281 45.828125 182.90625 45.472656 C 182.21875 44.785156 181.902344 43.527344 182.925781 42.503906 C 183.550781 41.929688 184.257812 41.523438 185.15625 41.597656 Z M 187.386719 35.46875 C 186.976562 36.507812 186.078125 36.824219 185.175781 36.6875 C 184.355469 36.570312 183.746094 36.117188 183.359375 35.371094 C 182.847656 34.367188 182.714844 33.328125 183.003906 32.246094 C 183.21875 31.441406 183.710938 30.832031 184.570312 30.691406 C 185.667969 30.496094 186.71875 30.890625 187.273438 31.988281 C 187.558594 32.519531 187.683594 33.167969 187.683594 34.089844 C 187.664062 34.464844 187.585938 34.976562 187.390625 35.46875 Z M 162.726562 34.132812 C 162.550781 33.070312 162.160156 32.105469 161.433594 31.300781 C 160.355469 30.101562 158.988281 29.578125 157.441406 29.570312 C 156.089844 29.550781 154.820312 29.945312 153.683594 30.652344 C 152.519531 31.351562 151.757812 32.351562 151.390625 33.660156 C 151.058594 34.800781 151.078125 35.960938 151.335938 37.117188 C 152.019531 40.222656 154.410156 41.558594 157.265625 41.363281 C 158.105469 41.304688 158.910156 41.027344 159.671875 40.65625 C 160.804688 40.121094 161.628906 39.277344 162.195312 38.160156 C 162.644531 37.234375 162.839844 36.253906 162.820312 35.132812 L 162.722656 34.128906 Z M 159.945312 38.492188 C 159.804688 38.945312 159.550781 39.320312 159.183594 39.621094 C 158.816406 39.921875 158.398438 40.09375 157.929688 40.144531 C 157.070312 40.261719 156.265625 40.046875 155.542969 39.535156 C 155.011719 39.144531 154.601562 38.652344 154.308594 38.0625 C 153.507812 36.410156 153.371094 34.683594 153.78125 32.914062 C 153.914062 32.355469 154.1875 31.875 154.601562 31.480469 C 155.328125 30.808594 156.167969 30.652344 157.109375 30.851562 C 158.011719 31.046875 158.695312 31.539062 159.257812 32.285156 C 159.820312 33.03125 160.078125 33.894531 160.234375 34.800781 C 160.3125 35.253906 160.3125 35.722656 160.332031 36.019531 C 160.332031 36.960938 160.253906 37.746094 159.960938 38.496094 Z M 205.496094 34.289062 C 205.351562 33.148438 204.929688 32.109375 204.125 31.246094 C 203.066406 30.085938 201.699219 29.59375 200.171875 29.574219 C 198.859375 29.554688 197.648438 29.925781 196.53125 30.574219 C 195.277344 31.324219 194.417969 32.382812 194.085938 33.816406 C 193.675781 35.433594 193.832031 36.992188 194.554688 38.492188 C 195.199219 39.871094 196.296875 40.753906 197.746094 41.144531 C 199.351562 41.578125 200.878906 41.382812 202.363281 40.65625 C 203.65625 40.027344 204.578125 39.042969 205.105469 37.707031 C 205.421875 36.921875 205.535156 36.078125 205.554688 35.09375 C 205.574219 34.917969 205.535156 34.601562 205.496094 34.289062 Z M 202.792969 38.238281 C 202.480469 39.300781 201.816406 39.988281 200.699219 40.144531 C 199.878906 40.261719 199.097656 40.066406 198.390625 39.59375 C 197.78125 39.183594 197.351562 38.632812 197.039062 37.984375 C 196.6875 37.296875 196.492188 36.570312 196.414062 35.824219 C 196.296875 34.902344 196.296875 33.996094 196.511719 33.074219 C 196.550781 32.890625 196.609375 32.714844 196.6875 32.542969 C 197.234375 31.167969 198.449219 30.539062 199.878906 30.851562 C 200.839844 31.070312 201.5625 31.601562 202.109375 32.40625 C 202.640625 33.191406 202.894531 34.058594 203.011719 34.992188 C 203.070312 35.367188 203.089844 35.761719 203.070312 36.09375 C 203.070312 36.859375 203.011719 37.566406 202.78125 38.253906 Z M 202.792969 38.238281 "/>
<g clip-path="url(#clip8)" clip-rule="nonzero">
<path style=" stroke:none;fill-rule:nonzero;fill:rgb(97.648621%,96.078491%,96.078491%);fill-opacity:1;" d="M 120.054688 90.871094 L 89.515625 90.871094 C 87.828125 90.871094 86.460938 92.238281 86.460938 93.925781 L 86.460938 124.46875 C 86.460938 126.15625 87.828125 127.519531 89.515625 127.519531 L 120.054688 127.519531 C 121.742188 127.519531 123.109375 126.15625 123.109375 124.46875 L 123.109375 93.925781 C 123.109375 92.238281 121.742188 90.871094 120.054688 90.871094 Z M 113.660156 116.609375 C 113.355469 117.347656 112.871094 117.996094 112.25 118.496094 C 111.609375 119.015625 110.796875 119.441406 109.796875 119.746094 C 108.800781 120.058594 107.609375 120.214844 106.234375 120.214844 L 96.414062 120.214844 L 96.414062 98.835938 L 106.800781 98.835938 C 108.722656 98.835938 110.261719 99.265625 111.410156 100.148438 C 112.574219 101.035156 113.148438 102.351562 113.148438 104.132812 C 113.148438 105.210938 112.886719 106.132812 112.359375 106.898438 C 111.832031 107.65625 111.074219 108.25 110.097656 108.664062 L 110.097656 108.734375 C 111.402344 109.007812 112.410156 109.625 113.078125 110.589844 C 113.742188 111.550781 114.082031 112.765625 114.082031 114.234375 C 114.082031 115.054688 113.921875 115.835938 113.621094 116.566406 Z M 113.660156 116.609375 "/>
</g>
<path style=" stroke:none;fill-rule:nonzero;fill:rgb(97.648621%,96.078491%,96.078491%);fill-opacity:1;" d="M 109.421875 111.34375 C 108.796875 110.769531 107.917969 110.492188 106.78125 110.492188 L 100.179688 110.492188 L 100.179688 117.160156 L 106.796875 117.160156 C 107.929688 117.160156 108.8125 116.867188 109.441406 116.273438 C 110.066406 115.6875 110.386719 114.847656 110.386719 113.769531 C 110.375 112.71875 110.066406 111.902344 109.441406 111.34375 Z M 109.421875 111.34375 "/>
<path style=" stroke:none;fill-rule:nonzero;fill:rgb(97.648621%,96.078491%,96.078491%);fill-opacity:1;" d="M 108.5 107.03125 L 108.507812 107.03125 C 109.109375 106.519531 109.40625 105.785156 109.40625 104.828125 C 109.40625 103.75 109.140625 102.988281 108.597656 102.550781 C 108.058594 102.117188 107.285156 101.890625 106.265625 101.890625 L 100.15625 101.890625 L 100.15625 107.789062 L 106.265625 107.789062 C 107.15625 107.789062 107.914062 107.53125 108.5 107.03125 Z M 108.5 107.03125 "/>
<g clip-path="url(#clip9)" clip-rule="nonzero">
<path style=" stroke:none;fill-rule:nonzero;fill:rgb(97.648621%,96.078491%,96.078491%);fill-opacity:1;" d="M 66.15625 49.308594 L 22.066406 49.308594 C 21.863281 49.308594 21.699219 49.140625 21.699219 48.9375 L 21.699219 42.777344 C 21.699219 41.816406 22.480469 41.035156 23.445312 41.035156 L 64.777344 41.035156 C 65.742188 41.035156 66.527344 41.816406 66.527344 42.777344 L 66.527344 48.9375 C 66.523438 49.140625 66.359375 49.308594 66.15625 49.308594 Z M 22.433594 48.570312 L 65.789062 48.570312 L 65.789062 42.777344 C 65.789062 42.222656 65.335938 41.769531 64.777344 41.769531 L 23.445312 41.769531 C 22.886719 41.769531 22.433594 42.222656 22.433594 42.777344 Z M 22.433594 48.570312 "/>
</g>
<g clip-path="url(#clip10)" clip-rule="nonzero">
<path style=" stroke:none;fill-rule:nonzero;fill:rgb(97.648621%,96.078491%,96.078491%);fill-opacity:1;" d="M 63.132812 84.402344 C 62.929688 84.402344 62.765625 84.238281 62.765625 84.035156 C 62.765625 83.832031 62.929688 83.667969 63.132812 83.667969 C 64.597656 83.667969 65.789062 82.480469 65.789062 81.019531 L 65.789062 49.308594 L 22.433594 49.308594 L 22.433594 78.085938 C 22.433594 78.289062 22.269531 78.453125 22.066406 78.453125 C 21.863281 78.453125 21.699219 78.289062 21.699219 78.085938 L 21.699219 48.941406 C 21.699219 48.738281 21.863281 48.570312 22.066406 48.570312 L 66.15625 48.570312 C 66.359375 48.570312 66.523438 48.738281 66.523438 48.941406 L 66.523438 81.019531 C 66.523438 82.886719 65.003906 84.402344 63.132812 84.402344 Z M 63.132812 84.402344 "/>
</g>
<path style=" stroke:none;fill-rule:nonzero;fill:rgb(97.648621%,96.078491%,96.078491%);fill-opacity:1;" d="M 26.851562 46.761719 C 25.972656 46.761719 25.257812 46.046875 25.257812 45.171875 C 25.257812 44.292969 25.972656 43.578125 26.851562 43.578125 C 27.734375 43.578125 28.449219 44.292969 28.449219 45.171875 C 28.449219 46.046875 27.734375 46.761719 26.851562 46.761719 Z M 26.851562 44.3125 C 26.378906 44.3125 25.996094 44.695312 25.996094 45.171875 C 25.996094 45.644531 26.378906 46.027344 26.851562 46.027344 C 27.328125 46.027344 27.710938 45.644531 27.710938 45.171875 C 27.710938 44.695312 27.328125 44.3125 26.851562 44.3125 Z M 26.851562 44.3125 "/>
<path style=" stroke:none;fill-rule:nonzero;fill:rgb(97.648621%,96.078491%,96.078491%);fill-opacity:1;" d="M 31.644531 46.761719 C 30.765625 46.761719 30.050781 46.046875 30.050781 45.171875 C 30.050781 44.292969 30.765625 43.578125 31.644531 43.578125 C 32.523438 43.578125 33.238281 44.292969 33.238281 45.171875 C 33.238281 46.046875 32.523438 46.761719 31.644531 46.761719 Z M 31.644531 44.3125 C 31.171875 44.3125 30.785156 44.695312 30.785156 45.171875 C 30.785156 45.644531 31.171875 46.027344 31.644531 46.027344 C 32.117188 46.027344 32.503906 45.644531 32.503906 45.171875 C 32.503906 44.695312 32.117188 44.3125 31.644531 44.3125 Z M 31.644531 44.3125 "/>
<path style=" stroke:none;fill-rule:nonzero;fill:rgb(97.648621%,96.078491%,96.078491%);fill-opacity:1;" d="M 36.4375 46.761719 C 35.554688 46.761719 34.839844 46.046875 34.839844 45.171875 C 34.839844 44.292969 35.554688 43.578125 36.4375 43.578125 C 37.316406 43.578125 38.03125 44.292969 38.03125 45.171875 C 38.03125 46.046875 37.316406 46.761719 36.4375 46.761719 Z M 36.4375 44.3125 C 35.960938 44.3125 35.578125 44.695312 35.578125 45.171875 C 35.578125 45.644531 35.960938 46.027344 36.4375 46.027344 C 36.910156 46.027344 37.296875 45.644531 37.296875 45.171875 C 37.296875 44.695312 36.910156 44.3125 36.4375 44.3125 Z M 36.4375 44.3125 "/>
<g clip-path="url(#clip11)" clip-rule="nonzero">
<path style=" stroke:none;fill-rule:nonzero;fill:rgb(97.648621%,96.078491%,96.078491%);fill-opacity:1;" d="M 63.132812 84.402344 L 22.066406 84.402344 C 20.195312 84.402344 18.675781 82.882812 18.675781 81.019531 L 18.675781 78.085938 C 18.675781 77.882812 18.839844 77.71875 19.042969 77.71875 L 60.113281 77.71875 C 60.316406 77.71875 60.480469 77.882812 60.480469 78.085938 L 60.480469 81.019531 C 60.480469 82.480469 61.671875 83.667969 63.132812 83.667969 C 63.335938 83.667969 63.503906 83.832031 63.503906 84.035156 C 63.503906 84.238281 63.335938 84.402344 63.132812 84.402344 Z M 19.410156 78.453125 L 19.410156 81.019531 C 19.410156 82.480469 20.601562 83.667969 22.066406 83.667969 L 61.027344 83.667969 C 60.246094 83.046875 59.746094 82.089844 59.746094 81.019531 L 59.746094 78.453125 Z M 19.410156 78.453125 "/>
</g>
<path style=" stroke:none;fill-rule:nonzero;fill:rgb(97.648621%,96.078491%,96.078491%);fill-opacity:1;" d="M 39.753906 64.949219 L 26.992188 64.949219 C 26.789062 64.949219 26.625 64.785156 26.625 64.582031 L 26.625 51.835938 C 26.625 51.632812 26.789062 51.46875 26.992188 51.46875 L 39.753906 51.46875 C 39.957031 51.46875 40.121094 51.632812 40.121094 51.835938 L 40.121094 64.582031 C 40.121094 64.785156 39.957031 64.949219 39.753906 64.949219 Z M 27.359375 64.214844 L 39.382812 64.214844 L 39.382812 52.203125 L 27.359375 52.203125 Z M 27.359375 64.214844 "/>
<path style=" stroke:none;fill-rule:nonzero;fill:rgb(97.648621%,96.078491%,96.078491%);fill-opacity:1;" d="M 39.753906 64.949219 C 39.660156 64.949219 39.5625 64.914062 39.492188 64.839844 L 26.734375 52.097656 C 26.589844 51.953125 26.589844 51.71875 26.734375 51.574219 C 26.875 51.433594 27.109375 51.433594 27.253906 51.574219 L 40.011719 64.320312 C 40.15625 64.464844 40.15625 64.695312 40.011719 64.839844 C 39.941406 64.914062 39.847656 64.949219 39.753906 64.949219 Z M 39.753906 64.949219 "/>
<path style=" stroke:none;fill-rule:nonzero;fill:rgb(97.648621%,96.078491%,96.078491%);fill-opacity:1;" d="M 26.992188 64.949219 C 26.898438 64.949219 26.804688 64.914062 26.734375 64.839844 C 26.589844 64.695312 26.589844 64.464844 26.734375 64.320312 L 39.492188 51.574219 C 39.636719 51.433594 39.871094 51.433594 40.011719 51.574219 C 40.15625 51.71875 40.15625 51.953125 40.011719 52.097656 L 27.253906 64.839844 C 27.179688 64.914062 27.085938 64.949219 26.992188 64.949219 Z M 26.992188 64.949219 "/>
<path style=" stroke:none;fill-rule:nonzero;fill:rgb(97.648621%,96.078491%,96.078491%);fill-opacity:1;" d="M 61.230469 53.675781 L 44.597656 53.675781 C 44.394531 53.675781 44.226562 53.511719 44.226562 53.308594 C 44.226562 53.105469 44.394531 52.9375 44.597656 52.9375 L 61.230469 52.9375 C 61.433594 52.9375 61.597656 53.105469 61.597656 53.308594 C 61.597656 53.511719 61.433594 53.675781 61.230469 53.675781 Z M 61.230469 53.675781 "/>
<path style=" stroke:none;fill-rule:nonzero;fill:rgb(97.648621%,96.078491%,96.078491%);fill-opacity:1;" d="M 61.230469 58.578125 L 44.597656 58.578125 C 44.394531 58.578125 44.226562 58.410156 44.226562 58.207031 C 44.226562 58.003906 44.394531 57.839844 44.597656 57.839844 L 61.230469 57.839844 C 61.433594 57.839844 61.597656 58.003906 61.597656 58.207031 C 61.597656 58.410156 61.433594 58.578125 61.230469 58.578125 Z M 61.230469 58.578125 "/>
<path style=" stroke:none;fill-rule:nonzero;fill:rgb(97.648621%,96.078491%,96.078491%);fill-opacity:1;" d="M 61.230469 63.476562 L 44.597656 63.476562 C 44.394531 63.476562 44.226562 63.3125 44.226562 63.109375 C 44.226562 62.90625 44.394531 62.742188 44.597656 62.742188 L 61.230469 62.742188 C 61.433594 62.742188 61.597656 62.90625 61.597656 63.109375 C 61.597656 63.3125 61.433594 63.476562 61.230469 63.476562 Z M 61.230469 63.476562 "/>
<path style=" stroke:none;fill-rule:nonzero;fill:rgb(97.648621%,96.078491%,96.078491%);fill-opacity:1;" d="M 35.828125 73.96875 L 26.992188 73.96875 C 26.789062 73.96875 26.625 73.804688 26.625 73.601562 L 26.625 68.242188 C 26.625 68.039062 26.789062 67.875 26.992188 67.875 L 35.828125 67.875 C 36.03125 67.875 36.195312 68.039062 36.195312 68.242188 L 36.195312 73.601562 C 36.195312 73.804688 36.03125 73.96875 35.828125 73.96875 Z M 27.359375 73.234375 L 35.457031 73.234375 L 35.457031 68.609375 L 27.359375 68.609375 Z M 27.359375 73.234375 "/>
<path style=" stroke:none;fill-rule:nonzero;fill:rgb(97.648621%,96.078491%,96.078491%);fill-opacity:1;" d="M 48.457031 73.96875 L 39.625 73.96875 C 39.421875 73.96875 39.257812 73.804688 39.257812 73.601562 L 39.257812 68.242188 C 39.257812 68.039062 39.421875 67.875 39.625 67.875 L 48.457031 67.875 C 48.660156 67.875 48.828125 68.039062 48.828125 68.242188 L 48.828125 73.601562 C 48.828125 73.804688 48.660156 73.96875 48.457031 73.96875 Z M 39.992188 73.234375 L 48.089844 73.234375 L 48.089844 68.609375 L 39.992188 68.609375 Z M 39.992188 73.234375 "/>
<path style=" stroke:none;fill-rule:nonzero;fill:rgb(97.648621%,96.078491%,96.078491%);fill-opacity:1;" d="M 61.230469 73.96875 L 52.394531 73.96875 C 52.191406 73.96875 52.027344 73.804688 52.027344 73.601562 L 52.027344 68.242188 C 52.027344 68.039062 52.191406 67.875 52.394531 67.875 L 61.230469 67.875 C 61.433594 67.875 61.597656 68.039062 61.597656 68.242188 L 61.597656 73.601562 C 61.597656 73.804688 61.433594 73.96875 61.230469 73.96875 Z M 52.765625 73.234375 L 60.863281 73.234375 L 60.863281 68.609375 L 52.765625 68.609375 Z M 52.765625 73.234375 "/>
<path style=" stroke:none;fill-rule:nonzero;fill:rgb(58.039856%,58.039856%,58.039856%);fill-opacity:1;" d="M 275.492188 103.042969 L 275.492188 133.648438 L 280.789062 130.6875 L 280.789062 106.003906 Z M 275.492188 103.042969 "/>
<g clip-path="url(#clip12)" clip-rule="nonzero">
<path style=" stroke:none;fill-rule:nonzero;fill:rgb(93.728638%,93.728638%,93.728638%);fill-opacity:1;" d="M 270.191406 130.6875 L 270.191406 93.832031 L 301.648438 111.601562 L 301.648438 117.851562 L 275.492188 103.042969 L 275.492188 133.648438 Z M 270.191406 130.6875 "/>
</g>
<path style=" stroke:none;fill-rule:nonzero;fill:rgb(58.039856%,58.039856%,58.039856%);fill-opacity:1;" d="M 333.765625 93.832031 L 333.765625 130.683594 L 312.578125 142.53125 L 307.28125 139.242188 L 328.46875 127.394531 L 328.46875 102.714844 L 301.648438 117.851562 L 301.648438 111.597656 Z M 333.765625 93.832031 "/>
<g clip-path="url(#clip13)" clip-rule="nonzero">
<path style=" stroke:none;fill-rule:nonzero;fill:rgb(83.918762%,83.918762%,83.918762%);fill-opacity:1;" d="M 328.46875 90.867188 L 301.980469 105.675781 L 275.492188 90.867188 L 270.191406 93.832031 L 301.648438 111.601562 L 333.765625 93.832031 Z M 328.46875 90.867188 "/>
</g>
<path style=" stroke:none;fill-rule:nonzero;fill:rgb(93.728638%,93.728638%,93.728638%);fill-opacity:1;" d="M 323.171875 105.675781 L 323.171875 124.433594 L 328.46875 127.394531 L 328.46875 102.714844 Z M 323.171875 105.675781 "/>
<path style=" stroke:none;fill-rule:nonzero;fill:rgb(83.918762%,83.918762%,83.918762%);fill-opacity:1;" d="M 296.683594 139.242188 L 323.171875 124.433594 L 328.46875 127.394531 L 307.28125 139.242188 L 328.136719 151.085938 L 349.332031 139.242188 L 354.625 142.203125 L 328.136719 157.007812 Z M 296.683594 139.242188 "/>
<g clip-path="url(#clip14)" clip-rule="nonzero">
<path style=" stroke:none;fill-rule:nonzero;fill:rgb(93.728638%,93.728638%,93.728638%);fill-opacity:1;" d="M 296.683594 139.242188 L 296.683594 145.492188 L 328.136719 163.265625 L 328.136719 157.007812 Z M 296.683594 139.242188 "/>
</g>
<path style=" stroke:none;fill-rule:nonzero;fill:rgb(93.728638%,93.728638%,93.728638%);fill-opacity:1;" d="M 354.625 142.203125 L 354.625 123.777344 L 349.332031 120.8125 L 349.332031 139.242188 Z M 354.625 142.203125 "/>
<g clip-path="url(#clip15)" clip-rule="nonzero">
<path style=" stroke:none;fill-rule:nonzero;fill:rgb(58.039856%,58.039856%,58.039856%);fill-opacity:1;" d="M 328.136719 157.007812 L 354.625 142.203125 L 354.625 123.777344 L 359.925781 120.8125 L 359.925781 145.492188 L 328.136719 163.265625 Z M 328.136719 157.007812 "/>
</g>
<g clip-path="url(#clip16)" clip-rule="nonzero">
<path style=" stroke:none;fill-rule:nonzero;fill:rgb(83.918762%,83.918762%,83.918762%);fill-opacity:1;" d="M 359.925781 120.8125 L 354.625 123.777344 L 349.332031 120.8125 L 354.625 117.851562 Z M 359.925781 120.8125 "/>
</g>
<g clip-path="url(#clip17)" clip-rule="nonzero">
<path style=" stroke:none;fill-rule:nonzero;fill:rgb(58.039856%,58.039856%,58.039856%);fill-opacity:1;" d="M 354.625 117.851562 L 354.625 111.601562 L 359.925781 108.636719 L 359.925781 114.890625 Z M 354.625 117.851562 "/>
</g>
<path style=" stroke:none;fill-rule:nonzero;fill:rgb(93.728638%,93.728638%,93.728638%);fill-opacity:1;" d="M 354.625 111.601562 L 354.625 117.851562 L 349.332031 114.890625 L 349.332031 108.636719 Z M 354.625 111.601562 "/>
<g clip-path="url(#clip18)" clip-rule="nonzero">
<path style=" stroke:none;fill-rule:nonzero;fill:rgb(83.918762%,83.918762%,83.918762%);fill-opacity:1;" d="M 359.925781 108.636719 L 354.625 111.601562 L 349.332031 108.636719 L 354.625 105.675781 Z M 359.925781 108.636719 "/>
</g>
<g clip-path="url(#clip19)" clip-rule="nonzero">
<path style=" stroke:none;fill-rule:nonzero;fill:rgb(14.898682%,30.198669%,89.408875%);fill-opacity:1;" d="M 146.503906 109.652344 L 136.261719 106.683594 L 133.980469 79.960938 L 159.054688 79.960938 L 156.773438 106.679688 Z M 146.503906 109.652344 "/>
</g>
<path style=" stroke:none;fill-rule:nonzero;fill:rgb(16.079712%,39.608765%,94.509888%);fill-opacity:1;" d="M 154.816406 104.980469 L 156.769531 82.144531 L 146.519531 82.144531 L 146.519531 107.378906 L 154.816406 104.976562 Z M 154.816406 104.980469 "/>
<path style=" stroke:none;fill-rule:nonzero;fill:rgb(92.158508%,92.158508%,92.158508%);fill-opacity:1;" d="M 139.210938 92.058594 L 139.492188 95.335938 L 146.519531 95.335938 L 146.519531 92.058594 Z M 139.210938 92.058594 "/>
<path style=" stroke:none;fill-rule:nonzero;fill:rgb(92.158508%,92.158508%,92.158508%);fill-opacity:1;" d="M 138.648438 85.421875 L 138.933594 88.699219 L 146.519531 88.699219 L 146.519531 85.421875 Z M 138.648438 85.421875 "/>
<path style=" stroke:none;fill-rule:nonzero;fill:rgb(92.158508%,92.158508%,92.158508%);fill-opacity:1;" d="M 146.519531 100.570312 L 146.503906 100.574219 L 143.007812 99.585938 L 142.785156 96.972656 L 139.632812 96.972656 L 140.074219 102.121094 L 146.503906 103.984375 L 146.519531 103.980469 Z M 146.519531 100.570312 "/>
<g clip-path="url(#clip20)" clip-rule="nonzero">
<path style=" stroke:none;fill-rule:nonzero;fill:rgb(0%,0%,0%);fill-opacity:1;" d="M 139.882812 72.699219 L 143.683594 72.699219 L 143.683594 74.359375 L 141.472656 74.359375 L 141.472656 76.019531 L 143.683594 76.019531 L 143.683594 77.679688 L 139.882812 77.679688 Z M 139.882812 72.699219 "/>
</g>
<g clip-path="url(#clip21)" clip-rule="nonzero">
<path style=" stroke:none;fill-rule:nonzero;fill:rgb(0%,0%,0%);fill-opacity:1;" d="M 144.445312 72.699219 L 148.246094 72.699219 L 148.246094 74.140625 L 146.035156 74.140625 L 146.035156 74.429688 L 148.246094 74.429688 L 148.246094 77.75 L 144.445312 77.75 L 144.445312 76.234375 L 146.65625 76.234375 L 146.65625 75.945312 L 144.445312 75.945312 Z M 144.445312 72.699219 "/>
</g>
<g clip-path="url(#clip22)" clip-rule="nonzero">
<path style=" stroke:none;fill-rule:nonzero;fill:rgb(0%,0%,0%);fill-opacity:1;" d="M 149.007812 72.699219 L 152.808594 72.699219 L 152.808594 74.140625 L 150.597656 74.140625 L 150.597656 74.429688 L 152.808594 74.429688 L 152.808594 77.75 L 149.007812 77.75 L 149.007812 76.234375 L 151.21875 76.234375 L 151.21875 75.945312 L 149.007812 75.945312 Z M 149.007812 72.699219 "/>
</g>
<path style=" stroke:none;fill-rule:nonzero;fill:rgb(100%,100%,100%);fill-opacity:1;" d="M 153.804688 92.058594 L 154.371094 85.421875 L 146.507812 85.421875 L 146.507812 88.699219 L 150.929688 88.699219 L 150.644531 92.058594 L 146.507812 92.058594 L 146.507812 95.335938 L 150.375 95.335938 L 150.007812 99.585938 L 146.507812 100.570312 L 146.507812 103.980469 L 152.941406 102.121094 L 152.992188 101.566406 L 153.726562 92.9375 Z M 153.804688 92.058594 "/>
<g clip-path="url(#clip23)" clip-rule="nonzero">
<path style=" stroke:none;fill-rule:nonzero;fill:rgb(97.648621%,96.078491%,96.078491%);fill-opacity:1;" d="M 77.425781 156.527344 L 77.425781 144.21875 L 78.082031 144.21875 L 78.082031 146.152344 C 78.160156 146.066406 78.230469 145.976562 78.296875 145.882812 C 78.84375 144.722656 80.003906 143.992188 81.265625 144.007812 C 82.765625 143.960938 83.984375 144.527344 84.699219 145.882812 C 85.160156 146.734375 85.40625 147.648438 85.429688 148.625 C 85.457031 149.597656 85.257812 150.523438 84.84375 151.398438 C 84.175781 152.917969 82.527344 153.671875 80.765625 153.394531 C 80.207031 153.347656 79.695312 153.167969 79.230469 152.855469 C 78.761719 152.542969 78.398438 152.132812 78.132812 151.632812 L 78.132812 156.527344 Z M 78.082031 148.574219 L 78.230469 150.019531 C 78.488281 151.664062 79.445312 152.636719 80.949219 152.820312 C 81.304688 152.878906 81.65625 152.875 82.007812 152.808594 C 82.359375 152.742188 82.691406 152.621094 83 152.4375 C 83.308594 152.257812 83.578125 152.027344 83.8125 151.75 C 84.042969 151.472656 84.21875 151.164062 84.347656 150.824219 C 84.929688 149.40625 84.886719 147.804688 84.230469 146.421875 C 84.097656 146.117188 83.917969 145.839844 83.695312 145.59375 C 83.472656 145.347656 83.21875 145.144531 82.929688 144.984375 C 82.640625 144.824219 82.335938 144.710938 82.011719 144.652344 C 81.691406 144.589844 81.367188 144.582031 81.039062 144.628906 C 80.734375 144.652344 80.4375 144.722656 80.15625 144.839844 C 79.871094 144.953125 79.609375 145.113281 79.375 145.308594 C 79.136719 145.507812 78.9375 145.738281 78.773438 146 C 78.605469 146.261719 78.484375 146.542969 78.40625 146.84375 C 78.265625 147.414062 78.15625 147.988281 78.082031 148.570312 Z M 98.851562 150.246094 C 98.800781 150.679688 98.675781 151.089844 98.480469 151.476562 C 98.285156 151.867188 98.027344 152.207031 97.707031 152.5 C 97.386719 152.792969 97.03125 153.019531 96.628906 153.179688 C 96.230469 153.335938 95.816406 153.421875 95.386719 153.429688 C 92.628906 153.570312 91.335938 151.710938 91.132812 149.5625 C 90.984375 148.375 91.164062 147.238281 91.667969 146.152344 C 91.839844 145.789062 92.0625 145.460938 92.335938 145.167969 C 92.613281 144.878906 92.925781 144.636719 93.273438 144.445312 C 93.625 144.253906 93.996094 144.125 94.386719 144.050781 C 94.777344 143.980469 95.171875 143.972656 95.566406 144.03125 C 95.941406 144.0625 96.300781 144.152344 96.644531 144.300781 C 96.992188 144.449219 97.308594 144.644531 97.59375 144.894531 C 97.878906 145.144531 98.121094 145.429688 98.316406 145.753906 C 98.511719 146.082031 98.652344 146.429688 98.742188 146.800781 C 98.882812 147.476562 98.984375 148.15625 99.050781 148.84375 L 91.8125 148.84375 C 91.679688 150.792969 92.707031 152.355469 94.164062 152.734375 C 95.980469 153.1875 97.535156 152.386719 98.097656 150.632812 C 98.222656 150.183594 98.453125 150.117188 98.855469 150.246094 Z M 91.808594 148.222656 L 98.28125 148.222656 C 98.242188 146.148438 96.972656 144.644531 95.246094 144.625 C 93.300781 144.59375 91.890625 146.039062 91.808594 148.222656 Z M 100.1875 150.292969 L 100.824219 150.292969 C 100.847656 150.777344 100.992188 151.21875 101.261719 151.617188 C 101.53125 152.019531 101.882812 152.320312 102.316406 152.519531 C 102.859375 152.765625 103.429688 152.882812 104.023438 152.867188 C 104.617188 152.851562 105.179688 152.703125 105.710938 152.429688 C 106 152.292969 106.226562 152.089844 106.390625 151.808594 C 106.554688 151.53125 106.625 151.230469 106.605469 150.90625 C 106.621094 150.589844 106.542969 150.304688 106.371094 150.042969 C 106.199219 149.785156 105.964844 149.601562 105.671875 149.5 C 104.976562 149.234375 104.234375 149.089844 103.519531 148.859375 C 102.78125 148.644531 102.058594 148.375 101.355469 148.054688 C 100.210938 147.484375 100.136719 145.273438 101.4375 144.570312 C 102.109375 144.183594 102.835938 143.984375 103.609375 143.972656 C 104.386719 143.960938 105.117188 144.136719 105.804688 144.503906 C 106.640625 144.972656 107.105469 145.921875 106.964844 146.886719 L 106.421875 146.886719 C 106.421875 146.859375 106.375 146.835938 106.375 146.808594 C 106.304688 145.046875 104.847656 144.492188 103.28125 144.648438 C 102.808594 144.703125 102.359375 144.847656 101.9375 145.0625 C 101.679688 145.183594 101.480469 145.367188 101.335938 145.617188 C 101.191406 145.867188 101.136719 146.136719 101.160156 146.425781 C 101.160156 146.714844 101.242188 146.976562 101.40625 147.210938 C 101.570312 147.445312 101.789062 147.613281 102.054688 147.707031 C 102.738281 147.964844 103.464844 148.125 104.171875 148.328125 L 105.882812 148.78125 C 106.277344 148.914062 106.605469 149.148438 106.859375 149.488281 C 107.109375 149.824219 107.246094 150.207031 107.269531 150.632812 C 107.40625 151.5625 106.9375 152.480469 106.109375 152.902344 C 104.613281 153.761719 102.152344 153.535156 101.058594 152.449219 C 100.496094 151.875 100.183594 151.097656 100.191406 150.289062 Z M 115.320312 146.886719 L 114.726562 146.886719 C 114.726562 146.804688 114.695312 146.726562 114.683594 146.664062 C 114.679688 146.4375 114.636719 146.21875 114.558594 146.003906 C 114.480469 145.792969 114.367188 145.601562 114.222656 145.429688 C 114.078125 145.253906 113.910156 145.109375 113.71875 144.996094 C 113.527344 144.882812 113.320312 144.804688 113.101562 144.761719 C 112.25 144.515625 111.414062 144.554688 110.589844 144.886719 C 110.265625 144.980469 110 145.164062 109.796875 145.4375 C 109.589844 145.710938 109.488281 146.019531 109.484375 146.363281 C 109.472656 146.703125 109.570312 147.007812 109.769531 147.277344 C 109.972656 147.546875 110.234375 147.71875 110.558594 147.800781 L 113.28125 148.507812 C 113.574219 148.582031 113.863281 148.671875 114.148438 148.777344 C 115.015625 149.097656 115.601562 149.917969 115.628906 150.851562 C 115.644531 151.320312 115.523438 151.753906 115.273438 152.148438 C 115.027344 152.539062 114.6875 152.828125 114.261719 153.011719 C 113.625 153.304688 112.953125 153.457031 112.253906 153.464844 C 111.550781 153.46875 110.878906 153.332031 110.234375 153.050781 C 109.699219 152.816406 109.277344 152.445312 108.96875 151.941406 C 108.660156 151.4375 108.523438 150.890625 108.554688 150.296875 L 109.132812 150.296875 C 109.351562 151.367188 110.078125 152.261719 111.070312 152.683594 C 112.0625 153.105469 113.199219 153 114.101562 152.40625 C 114.378906 152.261719 114.59375 152.050781 114.75 151.773438 C 114.90625 151.5 114.976562 151.203125 114.960938 150.886719 C 114.972656 150.574219 114.894531 150.289062 114.71875 150.027344 C 114.542969 149.769531 114.308594 149.589844 114.015625 149.492188 C 113.316406 149.226562 112.574219 149.085938 111.863281 148.851562 C 111.117188 148.640625 110.390625 148.375 109.683594 148.054688 C 108.566406 147.496094 108.476562 145.300781 109.753906 144.601562 C 110.4375 144.195312 111.175781 143.988281 111.964844 143.980469 C 112.757812 143.972656 113.5 144.160156 114.191406 144.550781 C 114.589844 144.792969 114.890625 145.125 115.09375 145.546875 C 115.296875 145.96875 115.371094 146.414062 115.3125 146.882812 Z M 76.34375 153.207031 C 76.101562 153.300781 75.859375 153.300781 75.617188 153.207031 C 75.375 153.113281 75.191406 152.949219 75.074219 152.714844 L 72.757812 149.464844 L 72.421875 149.011719 L 69.738281 152.71875 C 69.625 152.941406 69.453125 153.101562 69.222656 153.191406 C 68.992188 153.285156 68.761719 153.289062 68.53125 153.203125 L 71.988281 148.488281 L 68.769531 144.226562 C 69.25 144.050781 69.78125 144.242188 70.046875 144.679688 L 72.445312 147.972656 L 74.855469 144.695312 C 74.96875 144.476562 75.140625 144.320312 75.371094 144.234375 C 75.597656 144.148438 75.828125 144.148438 76.054688 144.238281 L 74.808594 145.921875 L 73.117188 148.160156 C 73.015625 148.25 72.96875 148.363281 72.96875 148.5 C 72.96875 148.632812 73.015625 148.746094 73.117188 148.835938 L 76.339844 153.207031 Z M 91.027344 144.183594 L 91.027344 144.824219 C 90.800781 144.808594 90.578125 144.816406 90.351562 144.851562 C 90.128906 144.882812 89.910156 144.9375 89.695312 145.019531 C 89.484375 145.097656 89.28125 145.199219 89.089844 145.320312 C 88.898438 145.445312 88.71875 145.585938 88.558594 145.746094 C 88.394531 145.90625 88.25 146.082031 88.125 146.273438 C 87.996094 146.464844 87.890625 146.667969 87.808594 146.882812 C 87.722656 147.09375 87.660156 147.316406 87.621094 147.542969 C 87.582031 147.769531 87.566406 147.996094 87.574219 148.226562 C 87.574219 149.726562 87.574219 151.222656 87.574219 152.71875 L 87.574219 153.230469 L 86.933594 153.230469 L 86.933594 144.222656 L 87.566406 144.222656 L 87.566406 146.066406 C 88.339844 144.722656 89.535156 144.222656 91.03125 144.183594 Z M 60.25 148.429688 L 60.53125 147.015625 C 61.304688 144.21875 64.460938 143.054688 66.632812 144.785156 C 67.902344 145.800781 68.21875 147.238281 68.15625 148.855469 L 60.996094 148.855469 C 60.882812 151.746094 62.933594 153.492188 65.5625 152.601562 C 66.425781 152.28125 67.078125 151.550781 67.292969 150.640625 C 67.433594 150.1875 67.660156 150.109375 68.082031 150.242188 C 68.007812 150.800781 67.820312 151.320312 67.515625 151.792969 C 67.210938 152.265625 66.820312 152.648438 66.34375 152.9375 C 65.957031 153.152344 65.542969 153.304688 65.105469 153.386719 C 64.671875 153.472656 64.234375 153.484375 63.792969 153.425781 C 63.351562 153.371094 62.933594 153.246094 62.53125 153.054688 C 62.128906 152.859375 61.769531 152.609375 61.445312 152.300781 C 60.804688 151.570312 60.417969 150.648438 60.34375 149.671875 C 60.34375 149.511719 60.292969 149.363281 60.253906 149.21875 C 60.25 148.949219 60.25 148.6875 60.25 148.429688 Z M 61.007812 148.234375 L 67.480469 148.234375 C 67.441406 146.136719 66.140625 144.648438 64.402344 144.636719 C 62.46875 144.609375 61.085938 146.0625 61 148.222656 Z M 61.007812 148.234375 "/>
</g>
<g clip-path="url(#clip24)" clip-rule="nonzero">
<path style=" stroke:none;fill-rule:nonzero;fill:rgb(100%,100%,100%);fill-opacity:1;" d="M 137.425781 67.988281 L 125.214844 67.988281 C 124.171875 67.988281 123.324219 67.128906 123.324219 66.070312 L 123.324219 49.8125 C 123.324219 48.757812 124.171875 47.898438 125.214844 47.898438 L 137.425781 47.898438 C 138.46875 47.898438 139.316406 48.757812 139.316406 49.8125 L 139.316406 66.066406 C 139.316406 67.125 138.46875 67.984375 137.425781 67.984375 Z M 137.425781 67.988281 "/>
</g>
<path style=" stroke:none;fill-rule:nonzero;fill:rgb(40.388489%,38.42926%,65.098572%);fill-opacity:1;" d="M 133.347656 65.226562 L 133.347656 57.246094 C 133.347656 57.246094 133.855469 55.335938 127.039062 58.027344 C 127.027344 58.066406 127.027344 50.648438 127.027344 50.648438 L 129.257812 50.632812 L 129.257812 55.386719 C 129.257812 55.386719 135.496094 52.890625 135.496094 57.273438 L 135.496094 65.226562 Z M 134.617188 53.503906 L 132.253906 53.503906 C 133.105469 52.453125 133.875 50.644531 133.875 50.644531 L 136.316406 50.644531 C 136.316406 50.644531 135.898438 51.820312 134.617188 53.503906 Z M 127.0625 65.210938 L 127.0625 60.667969 L 129.308594 62.941406 L 127.0625 65.214844 Z M 127.0625 65.210938 "/>
<g clip-path="url(#clip25)" clip-rule="nonzero">
<path style=" stroke:none;fill-rule:nonzero;fill:rgb(100%,100%,100%);fill-opacity:1;" d="M 148.128906 64.644531 L 148.128906 58.109375 C 148.128906 57.648438 147.796875 57.449219 147.402344 57.449219 C 146.472656 57.464844 145.585938 57.664062 144.738281 58.046875 L 144.738281 64.644531 L 142.921875 64.644531 L 142.921875 52.511719 L 144.738281 52.511719 L 144.738281 56.511719 C 145.597656 56.191406 146.628906 55.914062 147.660156 55.914062 C 149.308594 55.914062 149.925781 56.945312 149.925781 58.355469 L 149.925781 64.652344 Z M 153.324219 60.683594 C 153.382812 62.875 153.808594 63.308594 155.140625 63.308594 C 156.183594 63.308594 157.367188 62.953125 158.273438 62.605469 L 158.574219 63.988281 C 157.605469 64.433594 156.425781 64.859375 155.058594 64.859375 C 152.03125 64.859375 151.5625 63.171875 151.5625 60.488281 C 151.5625 59.015625 151.667969 57.679688 152.015625 56.449219 C 152.921875 56.09375 154.136719 55.910156 155.664062 55.910156 C 158.148438 55.910156 158.90625 57.308594 158.90625 59.753906 L 158.90625 60.6875 L 153.324219 60.6875 Z M 155.628906 57.445312 C 155.082031 57.445312 154.222656 57.460938 153.511719 57.601562 C 153.433594 57.972656 153.34375 58.472656 153.316406 59.414062 L 157.105469 59.414062 C 157.105469 58.136719 156.878906 57.449219 155.636719 57.449219 Z M 162.269531 58.039062 L 162.269531 64.644531 L 160.453125 64.644531 L 160.453125 57.222656 C 161.773438 56.527344 163.175781 56.132812 164.660156 56.042969 L 164.660156 57.574219 C 163.878906 57.632812 162.980469 57.734375 162.269531 58.050781 Z M 169.457031 64.847656 C 166.746094 64.847656 165.519531 63.503906 165.519531 60.414062 C 165.519531 57.148438 167.140625 55.898438 169.457031 55.898438 C 172.167969 55.898438 173.390625 57.246094 173.390625 60.335938 C 173.390625 63.601562 171.769531 64.847656 169.457031 64.847656 Z M 169.457031 57.445312 C 168.0625 57.445312 167.292969 58.257812 167.292969 60.421875 C 167.292969 62.785156 167.945312 63.3125 169.457031 63.3125 C 170.847656 63.3125 171.621094 62.511719 171.621094 60.351562 C 171.621094 57.988281 170.96875 57.453125 169.457031 57.453125 Z M 182.15625 64.640625 L 180.023438 64.640625 C 179.523438 63.292969 178.828125 61.867188 177.757812 60.710938 L 176.804688 60.710938 L 176.804688 64.640625 L 174.984375 64.640625 L 174.984375 52.511719 L 176.804688 52.511719 L 176.804688 59.480469 L 177.652344 59.480469 C 178.5625 58.496094 179.273438 57.378906 179.785156 56.132812 L 181.828125 56.132812 C 181.132812 57.558594 180.238281 58.816406 179.238281 59.847656 C 180.382812 61.339844 181.355469 62.941406 182.160156 64.652344 Z M 185.5625 64.851562 C 183.914062 64.851562 183.296875 63.824219 183.296875 62.414062 L 183.296875 56.128906 L 185.09375 56.128906 L 185.09375 62.652344 C 185.09375 63.109375 185.425781 63.3125 185.820312 63.3125 C 186.777344 63.292969 187.695312 63.09375 188.574219 62.714844 L 188.574219 56.128906 L 190.390625 56.128906 L 190.390625 63.527344 C 188.242188 64.722656 186.589844 64.859375 185.5625 64.859375 Z M 185.5625 64.851562 "/>
</g>
</g>
</svg>
